<?xml version="1.0" standalone="no"?>
<!DOCTYPE svg PUBLIC "-//W3C//DTD SVG 1.1//EN"
  "http://www.w3.org/Graphics/SVG/1.1/DTD/svg11.dtd">
<svg width="11.995579242706299mm" height="11.991999626159666mm" viewBox="-5.998000144958496 -5.995999813079833 11.995579242706299 11.991999626159666" xmlns="http://www.w3.org/2000/svg" version="1.1">
	<title>svgOutput</title>
	<desc>made with tinkercad</desc>
<path d="M 4.357368469238281 -0.5471578836441038 L 4.374421119689941 -0.5404210686683653 L 4.3888421058654785 -0.5324210524559019 L 4.718999862670898 -0.38299998641014077 L 4.727631568908691 -0.37836840748786904 L 4.973684310913086 -0.21463157236576064 L 4.99399995803833 -0.20000000298023207 L 4.997579097747803 -0.021052632480859642 L 4.997579097747803 1.1102230246251565e-16 L 4.997579097747803 0.021052632480859864 L 4.99399995803833 0.2000000029802323 L 4.718999862670898 0.382999986410141 L 4.385000228881836 0.5360000133514404 L 4.105000019073486 0.6129999756813049 L 4.0960001945495605 0.6138403415679932 L 4.070052623748779 0.6162631511688232 L 3.8114736080169678 0.6439999938011169 L 3.6271579265594482 0.6439999938011169 L 3.5926315784454346 0.6417894959449768 L 3.4432106018066406 0.6230000257492065 L 3.404052734375 0.6148947477340698 L 3.1032674312591553 0.5481524467468262 L 3.1016316413879395 0.547789454460144 L 3.0918421745300293 0.5491579174995422 L 3.072000026702881 0.5509039759635925 L 2.9800000190734863 0.5590000152587891 L 2.8995373249053955 0.6269463300704956 L 2.895770311355591 0.6306019425392151 L 2.888730049133301 0.6374340653419495 L 2.8834402561187744 0.6544675827026367 L 2.8700051307678223 0.6804720759391785 L 2.7947745323181152 0.899999976158142 L 2.7522804737091064 1.0240000486373901 L 2.706484794616699 1.1576342582702637 L 2.6792192459106445 1.2233483791351318 L 2.5192837715148926 1.5307103395462032 L 2.510761022567749 1.5490367412567134 L 2.490210771560669 1.6258910894393916 L 2.490316390991211 1.6338024139404292 L 2.4958603382110596 1.6546719074249263 L 2.51849627494812 1.7398813962936397 L 2.5207369327545166 1.7483158111572261 L 2.52368426322937 1.7551579475402828 L 2.5881052017211914 1.8106316328048702 L 2.590871572494507 1.8134431838989253 L 2.5945262908935547 1.8171578645706172 L 2.621999979019165 1.834105253219604 L 2.9306843280792236 2.039000034332275 L 2.940866708755493 2.04800009727478 L 2.963315725326538 2.067842006683349 L 3.072000026702881 2.16811990737915 L 3.125263214111328 2.217263221740722 L 3.3158421516418457 2.447210550308227 L 3.3350000381469727 2.470999956130981 L 3.4790000915527344 2.723000049591064 L 3.5935263633728027 3.030789375305175 L 3.6082444190979004 3.07200002670288 L 3.60984206199646 3.0764737129211417 L 3.6679999828338623 3.3663685321807852 L 3.671999931335449 3.391000032424926 L 3.3889999389648438 3.6740000247955313 L 3.072000026702881 3.6104042530059806 L 3.065000057220459 3.6089999675750724 L 2.9149999618530273 3.565000057220458 L 2.4711601734161377 3.338104248046874 L 2.4690001010894775 3.3369998931884757 L 2.4419474601745605 3.3145790100097647 L 2.239736795425415 3.1517367362976065 L 2.1683177947998047 3.07200002670288 L 2.0480000972747803 2.9376692771911617 L 2.0169472694396973 2.903000116348266 L 1.9955352544784546 2.8784158229827876 L 1.9913684129714966 2.8736314773559566 L 1.9744210243225098 2.8461577892303462 L 1.7811578512191772 2.550894737243652 L 1.7760000228881836 2.545526266098022 L 1.7505654096603394 2.5318913459777828 L 1.6992621421813965 2.504388570785522 L 1.6892105340957642 2.4990000724792476 L 1.680999994277954 2.4949998855590816 L 1.611247181892395 2.4941058158874507 L 1.5979313850402832 2.4955840110778804 L 1.108266830444336 2.726112365722656 L 1.0810939073562622 2.7407104969024654 L 1.028160572052002 2.7609465122222896 L 1.0240000486373901 2.7622656822204585 L 0.6984611749649048 2.8654851913452144 L 0.6891115307807922 2.869254112243652 L 0.677039384841919 2.874120235443115 L 0.6127340197563171 2.9080550670623775 L 0.575157880783081 2.950105190277099 L 0.5527894496917725 3.002894639968871 L 0.546999990940094 3.013000011444091 L 0.5469611883163452 3.0166494846343985 L 0.5468947291374207 3.022894620895385 L 0.545752763748169 3.07200002670288 L 0.5451551079750061 3.0976991653442374 L 0.5451052784919739 3.0998420715332022 L 0.5524736642837524 3.1312105655670157 L 0.6204736828804016 3.4425790309905997 L 0.6232105493545532 3.4815263748168936 L 0.6420000195503235 3.81347370147705 L 0.6387368440628052 3.848421096801757 L 0.6121799349784851 4.09600019454956 L 0.6110000014305115 4.106999874114989 L 0.5421052575111389 4.357526302337646 L 0.47321051359176636 4.533789634704589 L 0.4569999873638153 4.58400011062622 L 0.1979999989271164 4.995999813079833 L 0 4.995999813079833 L -0.20200000703334808 4.995999813079833 L -0.32636842131614685 4.823315620422362 L -0.3439432978630066 4.796905517578124 L -0.34563156962394714 4.794368267059325 L -0.36036843061447144 4.762894630432128 L -0.5249999761581421 4.421999931335448 L -0.5467488765716553 4.365613937377929 L -0.5491579174995422 4.359368324279784 L -0.5602105259895325 4.313262939453124 L -0.6160781979560852 4.09600019454956 L -0.6165789365768433 4.094052791595458 L -0.644315779209137 3.8354737758636466 L -0.6448420882225037 3.787579059600829 L -0.61710524559021 3.382263183593749 L -0.6151018142700195 3.365834951400756 L -0.6150000095367432 3.3650000095367423 L -0.6084736585617065 3.339526414871215 L -0.550315797328949 3.108684301376342 L -0.5494737029075623 3.1037368774414054 L -0.5454221963882446 3.07200002670288 L -0.5441052913665771 3.0616841316223136 L -0.5503684282302856 3.019631624221801 L -0.5537368655204773 3.0074210166931143 L -0.5805789232254028 2.9492630958557124 L -0.5924556255340576 2.9396972656249996 L -0.6685504913330078 2.8761498928070064 L -0.6731925010681152 2.8746690750122066 L -0.9020000100135803 2.8016874790191646 L -0.9794921278953552 2.7769701480865474 L -1.0073966979980469 2.7686626911163326 L -1.0240000486373901 2.7618496417999263 L -1.038283348083496 2.7559883594512935 L -1.2661243677139282 2.6630649566650386 L -1.5531809329986572 2.515515327453613 L -1.5875658988952637 2.497740745544433 L -1.5878255367279053 2.497707605361938 L -1.597523808479309 2.496470212936401 L -1.6568495035171509 2.496472597122192 L -1.6665290594100952 2.49647307395935 L -1.6824736595153809 2.4964737892150874 L -1.6912105083465576 2.4992105960845943 L -1.7096202373504639 2.5078740119934078 L -1.7672631740570068 2.535000085830688 L -1.7744210958480835 2.5419473648071285 L -1.7968024015426636 2.5669932365417476 L -1.812000036239624 2.5840001106262203 L -1.933684229850769 2.788894653320312 L -1.9506316184997559 2.8163683414459224 L -1.9953683614730835 2.8736314773559566 L -2.02115797996521 2.903210639953613 L -2.0480000972747803 2.933178901672363 L -2.172339916229248 3.07200002670288 L -2.2439472675323486 3.151947259902953 L -2.270789384841919 3.1741578578948966 L -2.426241159439087 3.299344778060912 L -2.4730000495910645 3.3369998931884757 L -2.7288947105407715 3.4792630672454825 L -2.751736879348755 3.492842197418212 L -2.7758421897888184 3.503263235092162 L -3.051578998565674 3.603773593902587 L -3.053210496902466 3.6043684482574454 L -3.069000005722046 3.6089999675750724 L -3.072000026702881 3.6098999977111808 L -3.0784735679626465 3.611842155456542 L -3.36836838722229 3.6700000762939444 L -3.3929998874664307 3.6740000247955313 L -3.6760001182556152 3.391000032424926 L -3.6419999599456787 3.1816315650939933 L -3.6328420639038086 3.139631509780883 L -3.6083273887634277 3.07200002670288 L -3.48073673248291 2.720000028610229 L -3.4679999351501465 2.6879999637603755 L -3.454421043395996 2.665157794952392 L -3.097421169281006 2.19005274772644 L -3.081526279449463 2.16952633857727 L -3.072000026702881 2.160897016525268 L -3.049105167388916 2.1401579380035396 L -2.939110279083252 2.04800009727478 L -2.850473642349243 1.9737368822097774 L -2.819526433944702 1.9540526866912837 L -2.5859999656677246 1.8099999427795406 L -2.531420946121216 1.7545262575149532 L -2.5244736671447754 1.747368454933166 L -2.5148329734802246 1.724988222122192 L -2.4994211196899414 1.6892105340957637 L -2.496999979019165 1.6829999685287471 L -2.4943246841430664 1.6232514381408687 L -2.494316577911377 1.6230684518814082 L -2.494210958480835 1.615578174591064 L -2.496422529220581 1.6082054376602168 L -2.5384438037872314 1.504473209381103 L -2.550692081451416 1.4825330972671509 L -2.565709352493286 1.4450429677963257 L -2.7042009830474854 1.1752077341079712 L -2.7562832832336426 1.0240000486373901 L -2.8704164028167725 0.692644476890564 L -2.8816306591033936 0.6587897539138794 L -2.881681203842163 0.6586378216743469 L -2.9273104667663574 0.6022698283195496 L -2.9327890872955322 0.5947890281677246 L -2.933894157409668 0.5941367149353027 L -2.9392244815826416 0.5909910798072815 L -3.0689473152160645 0.5444737076759338 L -3.072000026702881 0.5441936254501343 L -3.080420970916748 0.5434210300445557 L -3.3389999866485596 0.6060526371002197 L -3.3754210472106934 0.6140526533126831 L -3.522157907485962 0.63194739818573 L -3.5568947792053223 0.6341578960418701 L -3.815473794937134 0.6439999938011169 L -3.8504209518432617 0.6407368183135986 L -4.0960001945495605 0.61439448595047 L -4.109000205993652 0.6129999756813049 L -4.1384735107421875 0.604894757270813 L -4.476684093475342 0.5011052489280701 L -4.511842250823975 0.48500001430511475 L -4.759684085845947 0.3633157908916474 L -4.788631439208984 0.3440526425838471 L -4.998000144958496 0.2000000029802323 L -4.998000144958496 1.1102230246251565e-16 L -4.998000144958496 -0.20000000298023207 L -4.9733686447143555 -0.2169473618268965 L -4.665578842163086 -0.4146842062473295 L -4.626105308532715 -0.43310526013374306 L -4.388999938964844 -0.5360000133514402 L -4.109000205993652 -0.6129999756813047 L -4.0960001945495605 -0.6143944859504697 L -3.8406078815460205 -0.6417894959449766 L -3.819999933242798 -0.6439999938011167 L -3.78094744682312 -0.6417894959449766 L -3.5966315269470215 -0.6417894959449766 L -3.558736801147461 -0.6338947415351865 L -3.079157829284668 -0.5435262918472288 L -3.072000026702881 -0.5442080497741697 L -3.022789478302002 -0.5488947629928587 L -3.003844976425171 -0.5560507774353025 L -2.9510538578033447 -0.5784198641777036 L -2.882192373275757 -0.6588922739028928 L -2.8787875175476074 -0.6649566888809202 L -2.8065226078033447 -0.8999999761581418 L -2.7903337478637695 -0.9526549577713009 L -2.7828755378723145 -0.9784380793571469 L -2.7710535526275635 -1.0085792541503902 L -2.7646119594573975 -1.0240000486373897 L -2.6531121730804443 -1.2909233570098873 L -2.6328721046447754 -1.3300184011459346 L -2.6315765380859375 -1.335486769676208 L -2.5185136795043945 -1.5509089231491084 L -2.4993629455566406 -1.5873975753784175 L -2.4993629455566406 -1.587900042533874 L -2.4993627071380615 -1.592921137809753 L -2.501832962036133 -1.6530766487121578 L -2.5038421154022217 -1.7020000219345088 L -2.5054054260253906 -1.7060462236404415 L -2.5074210166931152 -1.7112631797790523 L -2.537842035293579 -1.7667368650436397 L -2.5435338020324707 -1.7720360755920406 L -2.543947458267212 -1.772421002388 L -2.580052614212036 -1.7961052656173702 L -2.8556315898895264 -1.9777368307113643 L -2.9462051391601562 -2.04800009727478 L -3.003263235092163 -2.092263221740722 L -3.018050193786621 -2.105882883071899 L -3.0272631645202637 -2.1143684387207027 L -3.0464210510253906 -2.1381578445434566 L -3.072000026702881 -2.1672568321228023 L -3.3365907669067383 -2.4682590961456294 L -3.3389999866485596 -2.470999956130981 L -3.5125789642333984 -2.7984735965728755 L -3.531785488128662 -2.834511518478393 L -3.5321578979492188 -2.835210561752319 L -3.5440526008605957 -2.870684146881103 L -3.6123249530792236 -3.07200002670288 L -3.613842010498047 -3.0764737129211417 L -3.671999931335449 -3.3663685321807852 L -3.6760001182556152 -3.391000032424926 L -3.3936097621917725 -3.6733903884887686 L -3.3929998874664307 -3.6740000247955313 L -3.3510000705718994 -3.664842128753661 L -3.072000026702881 -3.608869791030883 L -3.061105251312256 -3.606684207916259 L -2.7533156871795654 -3.4921579360961905 L -2.721315860748291 -3.479421138763427 L -2.495842218399048 -3.350579023361205 L -2.4730000495910645 -3.3369998931884757 L -2.4459474086761475 -3.3145790100097647 L -2.1784210205078125 -3.086421012878417 L -2.1656999588012695 -3.07200002670288 L -2.155578851699829 -3.0605263710021964 L -2.0480000972747803 -2.9261679649353023 L -1.9471052885055542 -2.800157785415649 L -1.9242631196975708 -2.765315771102905 L -1.7712631225585938 -2.5380525588989253 L -1.7610526084899902 -2.5325789451599117 L -1.713740587234497 -2.5103144645690914 L -1.684999942779541 -2.496789455413818 L -1.592939019203186 -2.4985752105712886 L -1.5850560665130615 -2.4994504451751705 L -1.5848397016525269 -2.4994745254516597 L -1.5795605182647705 -2.5000605583190914 L -1.4508905410766602 -2.5670752525329585 L -1.4053027629852295 -2.59008240699768 L -1.1926511526107788 -2.697301626205444 L -1.0240000486373901 -2.75782036781311 L -0.8540167808532715 -2.8188169002532955 L -0.8013874888420105 -2.8366086483001705 L -0.6899213790893555 -2.873333930969238 L -0.6468327045440674 -2.8875305652618404 L -0.6407023668289185 -2.89238429069519 L -0.6038916707038879 -2.921529054641723 L -0.5944210290908813 -2.936684131622314 L -0.5529579520225525 -3.014317274093627 L -0.5523684024810791 -3.0154211521148673 L -0.5526841878890991 -3.022894620895385 L -0.5511170029640198 -3.07200002670288 L -0.5501194000244141 -3.1032586097717276 L -0.550000011920929 -3.1070001125335684 L -0.5573683977127075 -3.138368368148803 L -0.6316315531730652 -3.4980525970458975 L -0.6343684196472168 -3.5369999408721915 L -0.6460000276565552 -3.81347370147705 L -0.6427368521690369 -3.848421096801757 L -0.6161799430847168 -4.09600019454956 L -0.6150000095367432 -4.106999874114989 L -0.6083683967590332 -4.132789611816405 L -0.605526328086853 -4.14015769958496 L -0.5249999761581421 -4.421999931335448 L -0.38499999046325684 -4.72100019454956 L -0.3803684115409851 -4.729631423950194 L -0.21663157641887665 -4.975684165954589 L -0.20200000703334808 -4.995999813079833 L 0 -4.995999813079833 L 0.1979999989271164 -4.995999813079833 L 0.38100001215934753 -4.72100019454956 L 0.5479999780654907 -4.35200023651123 L 0.6110000014305115 -4.106999874114989 L 0.6121799349784851 -4.09600019454956 L 0.6387368440628052 -3.848421096801757 L 0.6413684487342834 -3.8005263805389395 L 0.6413684487342834 -3.616210460662841 L 0.6225789189338684 -3.466789484024047 L 0.6166841983795166 -3.423842191696166 L 0.6126841902732849 -3.4078421592712393 L 0.5420265197753906 -3.07200002670288 L 0.5402105450630188 -3.063368320465087 L 0.5407368540763855 -3.0550525188446036 L 0.5559473633766174 -2.985263109207153 L 0.5863684415817261 -2.9378421306610103 L 0.594892680644989 -2.9257385730743404 L 0.6458770632743835 -2.8863799571990962 L 0.6911569833755493 -2.8708970546722408 L 0.8980000019073486 -2.805026292800903 L 0.9915618896484375 -2.7752308845520015 L 1.0240000486373901 -2.7599961757659908 L 1.0319275856018066 -2.7562727928161617 L 1.3142718076705933 -2.6383316516876216 L 1.5985755920410156 -2.5024454593658443 L 1.6137751340866089 -2.4945280551910396 L 1.6155537366867065 -2.4943304061889644 L 1.6213834285736084 -2.4936828613281246 L 1.6556912660598755 -2.5036520957946773 L 1.6614333391189575 -2.50532054901123 L 1.7160170078277588 -2.5211818218231197 L 1.7537894248962402 -2.5321578979492183 L 1.7603157758712769 -2.5335264205932613 L 1.761963129043579 -2.534533023834228 L 1.7660000324249268 -2.536999940872192 L 1.7698763608932495 -2.5413377285003658 L 1.8035789728164673 -2.5790526866912837 L 1.811368465423584 -2.5896842479705806 L 1.933052659034729 -2.7945790290832515 L 1.9492632150650024 -2.8197369575500484 L 1.9916760921478271 -2.8740253448486324 L 1.99399995803833 -2.8770000934600826 L 2.0234737396240234 -2.9095263481140132 L 2.0480000972747803 -2.936909198760986 L 2.1689987182617188 -3.07200002670288 L 2.2442214488983154 -3.1559836864471427 L 2.246263265609741 -3.1582632064819327 L 2.266789436340332 -3.1741578578948966 L 2.4690001010894775 -3.3369998931884757 L 2.7248947620391846 -3.4792630672454825 L 2.761631488800049 -3.498842000961303 L 3.0390000343322754 -3.599947452545165 L 3.072000026702881 -3.6110126972198477 L 3.0744736194610596 -3.611842155456542 L 3.364368438720703 -3.6700000762939444 L 3.3889999389648438 -3.6740000247955313 L 3.671999931335449 -3.391000032424926 L 3.6080031394958496 -3.07200002670288 L 3.6070001125335693 -3.066999912261962 L 3.6023683547973633 -3.051210641860961 L 3.5852105617523193 -3.0158421993255606 L 3.484105348587036 -2.7384736537933345 L 3.457263231277466 -2.6767368316650386 L 3.3418421745300293 -2.4825789928436275 L 3.319736957550049 -2.4522631168365474 L 3.072000026702881 -2.1704339981079097 L 3.027157783508301 -2.119421005249023 L 3.007999897003174 -2.098999977111816 L 2.990631580352783 -2.0855262279510494 L 2.93926739692688 -2.04800009727478 L 2.7946841716766357 -1.942368388175964 L 2.7672104835510254 -1.925420999526977 L 2.5551578998565674 -1.7876316308975215 L 2.548210620880127 -1.7804737091064449 L 2.5025789737701416 -1.7097895145416255 L 2.4900527000427246 -1.6471579074859615 L 2.4894285202026367 -1.6443375349044795 L 2.487210512161255 -1.634316205978393 L 2.4894402027130127 -1.6218280792236324 L 2.496150493621826 -1.58424699306488 L 2.5061192512512207 -1.5621858835220332 L 2.574174404144287 -1.431793093681335 L 2.612485408782959 -1.35839033126831 L 2.756389617919922 -1.0240000486373897 L 2.767059803009033 -0.999205648899078 L 2.7877659797668457 -0.9527676701545712 L 2.7890000343322754 -0.9499999880790707 L 2.798055410385132 -0.9203836321830746 L 2.8688106536865234 -0.6976951360702512 L 2.882939338684082 -0.6532273292541502 L 2.888566732406616 -0.6448401808738706 L 2.8913803100585938 -0.6410451531410215 L 2.927000045776367 -0.592999994754791 L 2.9334211349487305 -0.589210510253906 L 3.043473720550537 -0.545368432998657 L 3.0557894706726074 -0.544421076774597 L 3.072000026702881 -0.5482289195060728 L 3.087157964706421 -0.5517894625663755 L 3.4387476444244385 -0.6224652528762815 L 3.4387893676757812 -0.6224736571311948 L 3.4605789184570312 -0.6252105236053465 L 3.609999895095825 -0.6439999938011167 L 3.6316843032836914 -0.6439999938011167 L 3.6621053218841553 -0.6407368183135984 L 4.0960001945495605 -0.6135636568069456 L 4.105000019073486 -0.6129999756813047 L 4.3242106437683105 -0.5566315650939939 L 4.3544158935546875 -0.5480014681816099 L 4.357368469238281 -0.5471578836441038 M 0.8496249914169312 -2.2330832481384273 L 0.8429166674613953 -2.243583440780639 L 0.8330000042915344 -2.2499999999999996 L 0.47699999809265137 -2.348000049591064 L 0.4311538338661194 -2.356923103332519 L 0.15561538934707642 -2.3915383815765376 L 0.07900000363588333 -2.398000001907348 L 0 -2.3930737972259517 L -0.054230768233537674 -2.3896923065185542 L -0.2672713100910187 -2.3818261623382564 L -0.2792307734489441 -2.3813846111297603 L -0.3761538565158844 -2.3604614734649654 L -0.6681379675865173 -2.303169250488281 L -0.6690000295639038 -2.3029999732971187 L -0.7246800065040588 -2.285079956054687 L -0.843708336353302 -2.2469999790191646 L -0.8544999957084656 -2.2385416030883785 L -0.8816840052604675 -2.2132542133331294 L -0.8849583268165588 -2.210208415985107 L -0.8955833315849304 -2.1740832328796382 L -0.9020000100135803 -2.155999898910522 L -0.9020000100135803 -2.04800009727478 L -0.9020000100135803 -1.3999999761581416 L -0.9259999990463257 -1.2450000047683711 L -0.9472500085830688 -1.1940000057220455 L -0.9621250033378601 -1.1633750200271602 L -1.0485416650772095 -1.055708289146423 L -1.0779999494552612 -1.0210000276565547 L -1.2109999656677246 -0.9390000104904171 L -1.4019999504089355 -0.8999999761581418 L -2.0480000972747803 -0.8999999761581418 L -2.1579999923706055 -0.8999999761581418 L -2.200500011444092 -0.8858333230018612 L -2.2214999198913574 -0.8767916560173031 L -2.241333246231079 -0.851999998092651 L -2.246875047683716 -0.8441249728202816 L -2.2911601066589355 -0.7134799957275388 L -2.311000108718872 -0.6529999971389768 L -2.369999885559082 -0.38999998569488503 L -2.3893845081329346 -0.21138460934162123 L -2.3980000019073486 -0.07107692211866366 L -2.3980000019073486 1.1102230246251565e-16 L -2.3980000019073486 0.06599999964237223 L -2.369999885559082 0.38999998569488525 L -2.331279993057251 0.5343199968338013 L -2.249000072479248 0.8417083621025084 L -2.2487130165100098 0.8420692086219786 L -2.2399582862854004 0.853083312511444 L -2.17549991607666 0.8941666483879088 L -2.1579999923706055 0.899999976158142 L -2.0480000972747803 0.899999976158142 L -1.4019999504089355 0.899999976158142 L -1.2922083139419556 0.9169999957084655 L -1.2365000247955322 0.9283750057220458 L -1.1167917251586914 0.9970833063125609 L -1.0779999494552612 1.0210000276565552 L -0.9769999980926514 1.1399999856948853 L -0.9621250033378601 1.1706249713897705 L -0.9205268025398254 1.2803478240966797 L -0.9132500290870667 1.299541711807251 L -0.9089999794960022 1.3547916412353516 L -0.9020000100135803 1.399999976158142 L -0.9020000100135803 2.04800009727478 L -0.9020000100135803 2.125038862228393 L -0.9020000100135803 2.155999898910522 L -0.8609166741371155 2.2204582691192623 L -0.8518750071525574 2.241458415985107 L -0.843999981880188 2.2469999790191646 L -0.6690000295639038 2.3029999732971187 L -0.5788461565971375 2.3226923942565914 L -0.36076924204826355 2.3697693347930904 L -0.22538462281227112 2.3796153068542476 L -2.69911773911832e-19 2.3936693668365474 L 0.07438461482524872 2.3983078002929683 L 0.1786923110485077 2.3872308731079097 L 0.3510769307613373 2.3726923465728755 L 0.37521618604660034 2.3663609027862544 L 0.4896000027656555 2.3363599777221675 L 0.8330000042915344 2.2499999999999996 L 0.8421698212623596 2.2438867092132564 L 0.843500018119812 2.2430000305175777 L 0.8789166808128357 2.212541580200195 L 0.8847500085830688 2.204083442687988 L 0.8953750133514404 2.167958259582519 L 0.8980000019073486 2.155999898910522 L 0.8980000019073486 2.04800009727478 L 0.8980000019073486 1.455958366394043 L 0.8980000019073486 1.399999976158142 L 0.9086250066757202 1.3178333044052124 L 0.9103749990463257 1.2950832843780518 L 0.9243749976158142 1.2516249418258667 L 0.981041669845581 1.1255416870117188 L 0.9929999709129333 1.1059999465942383 L 1.0078749656677246 1.0885000228881836 L 1.1105833053588867 0.9957083463668822 L 1.168624997138977 0.9601250290870665 L 1.2706249952316284 0.9176250100135802 L 1.315833330154419 0.9106249809265136 L 1.3980000019073486 0.899999976158142 L 2.0480000972747803 0.899999976158142 L 2.1540000438690186 0.899999976158142 L 2.1837499141693115 0.8929166793823241 L 2.2053332328796387 0.8830000162124633 L 2.242166757583618 0.8440416455268859 L 2.247999906539917 0.8349999785423278 L 2.361999988555908 0.39399999380111694 L 2.379307746887207 0.2548461556434632 L 2.3857691287994385 0.18412820994853982 L 2.3903846740722656 0.1336153894662858 L 2.3857691287994385 0.052384614944458105 L 2.3857691287994385 1.1102230246251565e-16 L 2.3857691287994385 -0.20068725943565352 L 2.3857691287994385 -0.21484614908695204 L 2.3725385665893555 -0.29515385627746565 L 2.3682308197021484 -0.31023076176643355 L 2.3259999752044678 -0.5740000009536741 L 2.247999906539917 -0.8349999785423275 L 2.2386667728424072 -0.8475416898727414 L 2.209625005722046 -0.882958352565765 L 2.1915416717529297 -0.8893749713897702 L 2.1540000438690186 -0.8999999761581418 L 2.0480000972747803 -0.8999999761581418 L 1.3980000019073486 -0.8999999761581418 L 1.2070000171661377 -0.9390000104904171 L 1.0952943563461304 -1.0078711509704585 L 1.0740000009536743 -1.0210000276565547 L 1.0024583339691162 -1.1052917242050166 L 0.9788333177566528 -1.130083322525024 L 0.9581249952316284 -1.17062497138977 L 0.9156249761581421 -1.2726249694824214 L 0.9086250066757202 -1.317833304405212 L 0.8980000019073486 -1.3999999761581416 L 0.8980000019073486 -2.04800009727478 L 0.8980000019073486 -2.155999898910522 L 0.8975345492362976 -2.1580944061279292 L 0.8956666588783264 -2.166500091552734 L 0.8496249914169312 -2.2330832481384273 z" fill="none" stroke="rgb(255,0,0)" stroke-width="0.001mm" />
</svg>